<?xml version="1.0" encoding="UTF-8"?>
<svg width="96" height="64" viewBox="0 0 96 64" fill="none" xmlns="http://www.w3.org/2000/svg">
<path d="M0 0 C1.18239258 0.00676758 1.18239258 0.00676758 2.38867188 0.01367188 C4.32164761 0.02538688 6.25458393 0.04332002 8.1875 0.0625 C8.5175 1.0525 8.8475 2.0425 9.1875 3.0625 C7.875 5.25 7.875 5.25 6.1875 7.0625 C5.5275 7.0625 4.8675 7.0625 4.1875 7.0625 C3.8575 10.0325 3.5275 13.0025 3.1875 16.0625 C8.44937317 19.3054459 13.57324319 21.35318052 19.4375 23.25 C33.65414303 28.05324163 47.2139203 33.90870884 59.1875 43.0625 C61.9027429 44.91157665 64.62534971 46.74917742 67.3515625 48.58203125 C67.95742188 49.07058594 68.56328125 49.55914062 69.1875 50.0625 C69.1875 50.7225 69.1875 51.3825 69.1875 52.0625 C69.8475 52.0625 70.5075 52.0625 71.1875 52.0625 C71.1875 52.7225 71.1875 53.3825 71.1875 54.0625 C71.71988281 54.28035156 72.25226563 54.49820313 72.80078125 54.72265625 C76.05447746 56.54919929 78.65933413 58.97363306 81.375 61.5 C81.95016357 62.03351074 82.52532715 62.56702148 83.11791992 63.11669922 C88.32959359 68.04105801 92.79606049 73.3996342 97.1875 79.0625 C97.87457031 79.88363281 98.56164062 80.70476562 99.26953125 81.55078125 C107.22900775 91.09302172 112.57636177 101.67038522 117.78540039 112.86987305 C120.35813161 118.38426569 123.1085922 123.73750645 126.02709961 129.07739258 C129.64738076 135.7794813 132.85101229 142.67700181 136.10522461 149.56201172 C139.11270926 155.89615551 142.27298488 162.11048395 145.62109375 168.27001953 C147.61948339 171.95767291 149.42897706 175.65981628 151.07421875 179.515625 C152.64411709 183.10711173 154.32526253 186.64392647 156 190.1875 C156.34732178 190.92395752 156.69464355 191.66041504 157.05249023 192.41918945 C158.40835022 195.2940887 159.76511112 198.1685611 161.12304688 201.04248047 C163.16670216 205.37239126 165.18748237 209.71226269 167.1875 214.0625 C167.4747998 214.68415039 167.76209961 215.30580078 168.05810547 215.94628906 C175.7796124 232.75014855 181.6244763 250.15176776 186.1875 268.0625 C186.6515625 269.82787109 186.6515625 269.82787109 187.125 271.62890625 C192.90613276 295.61504843 189.13209752 318.54876667 183.1875 342.0625 C182.1975 342.0625 181.2075 342.0625 180.1875 342.0625 C178.93624643 339.55999286 178.75758966 337.33716897 178.375 334.5625 C177.14750125 326.94101525 175.04240959 320.14842655 170.1875 314.0625 C170.2596875 314.7946875 170.331875 315.526875 170.40625 316.28125 C172.60246854 341.90379968 173.02589453 367.51104225 159.1875 390.0625 C157.5375 390.0625 155.8875 390.0625 154.1875 390.0625 C154.13851563 389.33804687 154.08953125 388.61359375 154.0390625 387.8671875 C153.63543848 382.64791133 153.17474193 377.96436342 151.1875 373.0625 C144.50490131 372.91722612 141.5737909 376.0209376 136.8828125 380.50390625 C134.11602545 383.13034903 131.25820677 385.57666523 128.3125 388 C127.42820312 388.73089844 126.54390625 389.46179688 125.6328125 390.21484375 C123.52684916 391.80609081 121.58986659 392.99540228 119.1875 394.0625 C119.1875 394.7225 119.1875 395.3825 119.1875 396.0625 C117.19465862 397.4065093 115.19330329 398.73791292 113.1875 400.0625 C111.50416793 401.71233293 109.83946164 403.38125692 108.1875 405.0625 C101.64573693 411.24812124 94.97504331 417.18271523 87.953125 422.8203125 C86.06602905 424.35024623 84.20209082 425.90908082 82.359375 427.4921875 C69.11191426 438.86233429 53.64482539 451.40276251 35.3125 451.125 C34.53132812 451.11597656 33.75015625 451.10695313 32.9453125 451.09765625 C32.07519531 451.08025391 32.07519531 451.08025391 31.1875 451.0625 C30.60546875 449.171875 30.60546875 449.171875 30.1875 447.0625 C31.5 445.3125 31.5 445.3125 33.1875 444.0625 C33.8475 444.0625 34.5075 444.0625 35.1875 444.0625 C35.455625 443.216875 35.72375 442.37125 36 441.5 C37.1875 438.0625 37.1875 438.0625 38.6875 434.6875 C41.82355981 427.1086888 42.5808162 420.05697299 42.875 411.9375 C42.92205078 411.01324219 42.96910156 410.08898437 43.01757812 409.13671875 C43.71813577 391.74910763 42.15883584 374.47887332 39.76831055 357.27539062 C39.37430709 354.43250036 38.99764811 351.58769262 38.62304688 348.7421875 C37.2469652 338.50329459 35.5963998 328.38842396 33.35990906 318.29867554 C32.08386661 312.37340017 32.08386661 312.37340017 33.1875 309.0625 C40.35339557 309.8893341 40.35339557 309.8893341 43.65234375 310.57421875 C58.58899423 313.59583671 76.24765183 314.47036251 89.76171875 306.5546875 C100.16659512 299.15948611 104.21821921 288.96014221 106.4375 276.8125 C108.44270878 262.19826653 105.1055697 248.94442289 98.1875 236.0625 C97.8575 235.0725 97.5275 234.0825 97.1875 233.0625 C96.5275 233.0625 95.8675 233.0625 95.1875 233.0625 C94.48625 232.19625 93.785 231.33 93.0625 230.4375 C85.98056324 221.713375 75.29963905 216.3746345 64.1875 215.0625 C51.12638142 214.36279722 39.39375926 215.701215 26.875 219.4375 C26.20452637 219.63432373 25.53405273 219.83114746 24.84326172 220.03393555 C20.40614485 221.42752466 16.9889813 223.42336232 13.1875 226.0625 C12.5275 226.0625 11.8675 226.0625 11.1875 226.0625 C10.919375 226.63226563 10.65125 227.20203125 10.375 227.7890625 C6.26438355 235.65872952 0.55081087 241.80264014 -7.8125 245.0625 C-13.49529344 246.24073785 -18.26989309 245.83225076 -23.3125 242.875 C-27.27803426 239.90971678 -30.25882069 236.30475528 -33.375 232.5 C-43.00420127 220.78368122 -55.84414085 216.83938358 -70.75390625 215.21923828 C-74.6069504 214.9258732 -78.44972313 214.87810014 -82.3125 214.875 C-83.51712891 214.85663086 -83.51712891 214.85663086 -84.74609375 214.83789062 C-98.49530086 214.80446468 -110.36639716 220.57464649 -120.26171875 230.01171875 C-132.20818631 244.29991349 -134.10433211 261.06727868 -132.8125 279.0625 C-131.32427726 289.75671598 -125.97792701 299.16919306 -117.5234375 305.8515625 C-109.62421475 311.44233659 -100.69205006 312.43470077 -91.25 312.375 C-90.38810059 312.37371094 -89.52620117 312.37242187 -88.63818359 312.37109375 C-81.60886768 312.26747384 -75.04076898 311.26219321 -68.1953125 309.71875 C-64.96885316 309.09283179 -62.0880972 308.9422946 -58.8125 309.0625 C-59.27466634 312.75983071 -59.84931515 316.20634417 -60.77539062 319.82470703 C-61.78781128 323.80465075 -62.46647797 327.80165039 -63.03125 331.8671875 C-63.13465698 332.59003937 -63.23806396 333.31289124 -63.34460449 334.05764771 C-63.56167126 335.58176533 -63.77669128 337.10617575 -63.98974609 338.63085938 C-64.30696044 340.89791019 -64.63143125 343.16382768 -64.95703125 345.4296875 C-65.49735325 349.21897541 -66.01368753 353.01096212 -66.5140686 356.8057251 C-66.70944997 358.28322302 -66.90835079 359.76026083 -67.11117554 361.23675537 C-68.74981311 373.30322678 -69.15487852 385.24314367 -69.12817383 397.41455078 C-69.12498151 400.45510732 -69.14869851 403.49471671 -69.17382812 406.53515625 C-69.2140915 419.01508564 -68.86128293 429.82904599 -62.8125 441.0625 C-62.8125 442.0525 -62.8125 443.0425 -62.8125 444.0625 C-61.1625 444.7225 -59.5125 445.3825 -57.8125 446.0625 C-58.1425 447.7125 -58.4725 449.3625 -58.8125 451.0625 C-65.80448639 451.40082192 -71.22462547 450.34763414 -77.8125 448.0625 C-79.00875 447.670625 -80.205 447.27875 -81.4375 446.875 C-82.22125 446.606875 -83.005 446.33875 -83.8125 446.0625 C-83.8125 445.4025 -83.8125 444.7425 -83.8125 444.0625 C-84.37066406 443.95679688 -84.92882812 443.85109375 -85.50390625 443.7421875 C-94.56430207 441.0746598 -102.17441405 433.42223213 -109.16015625 427.3203125 C-111.57703864 425.0805515 -111.57703864 425.0805515 -113.8125 424.0625 C-113.8125 423.4025 -113.8125 422.7425 -113.8125 422.0625 C-114.36550781 421.82917969 -114.91851562 421.59585937 -115.48828125 421.35546875 C-118.41712669 419.72614465 -120.56117688 417.6730541 -123 415.375 C-127.23550399 411.44121874 -131.56008329 407.84009256 -136.23046875 404.4375 C-137.01357422 403.756875 -137.01357422 403.756875 -137.8125 403.0625 C-137.8125 402.4025 -137.8125 401.7425 -137.8125 401.0625 C-138.69615234 400.65837891 -138.69615234 400.65837891 -139.59765625 400.24609375 C-141.81559411 399.06084654 -143.39581549 397.81400104 -145.25 396.125 C-148.9949295 392.77576116 -152.79261 389.49828494 -156.625 386.25 C-157.18823975 385.76990479 -157.75147949 385.28980957 -158.33178711 384.79516602 C-160.7615114 382.73626941 -163.1590889 380.83144073 -165.8125 379.0625 C-165.8125 378.4025 -165.8125 377.7425 -165.8125 377.0625 C-166.451875 376.753125 -167.09125 376.44375 -167.75 376.125 C-169.8125 375.0625 -169.8125 375.0625 -170.8125 374.0625 C-173.14067964 373.69489269 -175.4743385 373.36008419 -177.8125 373.0625 C-179.19328394 378.12537443 -180.11997649 382.95008171 -180.56640625 388.1796875 C-180.8125 390.0625 -180.8125 390.0625 -181.8125 392.0625 C-182.8025 392.0625 -183.7925 392.0625 -184.8125 392.0625 C-195.85407763 373.73293317 -198.60105847 356.58565056 -198.125 335.375 C-198.09983235 333.39000272 -198.07703444 331.40497394 -198.05664062 329.41992188 C-198.00243893 324.63331247 -197.91665696 319.84827212 -197.8125 315.0625 C-202.78133701 321.14048612 -204.18937404 326.27798843 -205.4375 333.875 C-205.5715625 334.66326172 -205.705625 335.45152344 -205.84375 336.26367188 C-206.1716229 338.19578006 -206.49274237 340.1290322 -206.8125 342.0625 C-208.1325 341.7325 -209.4525 341.4025 -210.8125 341.0625 C-211.62779181 336.8755386 -212.43923418 332.68783997 -213.25 328.5 C-213.48009766 327.31857422 -213.71019531 326.13714844 -213.94726562 324.91992188 C-219.03234846 298.61014547 -216.38537395 275.30485106 -207.8125 250.0625 C-207.45671875 248.91523438 -207.1009375 247.76796875 -206.734375 246.5859375 C-198.18073425 219.41909259 -185.39328965 193.23042415 -171.94433594 168.19140625 C-166.85339838 158.61569971 -162.17413902 148.82688191 -157.60107422 138.99560547 C-156.07612998 135.7205413 -154.52395747 132.46669318 -152.89453125 129.2421875 C-151.3358445 126.14892129 -149.85550335 123.02703583 -148.40234375 119.8828125 C-143.91546339 110.2146637 -139.29734757 100.73618239 -133.75 91.625 C-133.2852124 90.85623535 -132.8204248 90.0874707 -132.34155273 89.29541016 C-131.22697184 87.51100404 -130.02805536 85.77971313 -128.8125 84.0625 C-128.1525 84.0625 -127.4925 84.0625 -126.8125 84.0625 C-126.69318115 83.46920898 -126.5738623 82.87591797 -126.45092773 82.26464844 C-125.43412861 78.7573719 -123.09485055 76.14568934 -120.875 73.3125 C-120.41931641 72.71050781 -119.96363281 72.10851562 -119.49414062 71.48828125 C-118.31922508 69.97104039 -117.07080593 68.51133145 -115.8125 67.0625 C-115.1525 67.0625 -114.4925 67.0625 -113.8125 67.0625 C-113.48572266 66.26005859 -113.48572266 66.26005859 -113.15234375 65.44140625 C-111.33689104 62.21805145 -108.89403143 59.67667616 -106.375 57 C-105.88451172 56.47083984 -105.39402344 55.94167969 -104.88867188 55.39648438 C-103.53827647 53.9440348 -102.1758335 52.50281222 -100.8125 51.0625 C-100.24402344 50.44503906 -99.67554688 49.82757813 -99.08984375 49.19140625 C-97.8125 48.0625 -97.8125 48.0625 -95.8125 48.0625 C-95.503125 47.2271875 -95.503125 47.2271875 -95.1875 46.375 C-93.23566968 43.09237629 -90.87019006 41.35576754 -87.8125 39.0625 C-87.1525 39.0625 -86.4925 39.0625 -85.8125 39.0625 C-85.8125 38.4025 -85.8125 37.7425 -85.8125 37.0625 C-83.7180032 35.42820249 -81.63467909 33.92082766 -79.4375 32.4375 C-78.83421875 32.01726563 -78.2309375 31.59703125 -77.609375 31.1640625 C-73.07787135 28.0625 -73.07787135 28.0625 -70.8125 28.0625 C-70.8125 27.4025 -70.8125 26.7425 -70.8125 26.0625 C-52.4024484 15.5267596 -34.45224328 6.36024978 -13.8125 1.0625 C-12.98105469 0.84722656 -12.14960938 0.63195313 -11.29296875 0.41015625 C-7.52942981 -0.11733188 -3.79447848 -0.04134805 0 0 Z " fill="#F8B333" transform="translate(262.8125,14.9375)"/>
<path d="M0 0 C5.62205642 -0.20266425 10.69547221 0.51004462 16.1875 1.6875 C17.02466553 1.86684082 17.86183105 2.04618164 18.72436523 2.23095703 C33.05698474 5.45465694 44.91998191 11.75729586 55.62890625 21.78125 C57.72307342 23.74086607 59.86685042 25.59402392 62.0625 27.4375 C80.93552938 43.97027373 98.82972468 69.05331632 109 92 C109 93.32 109 94.64 109 96 C105.44347078 97.51444506 101.87889906 99.00896311 98.3125 100.5 C96.80139648 101.14388672 96.80139648 101.14388672 95.25976562 101.80078125 C94.28330078 102.20683594 93.30683594 102.61289063 92.30078125 103.03125 C91.40528564 103.40830078 90.50979004 103.78535156 89.5871582 104.17382812 C86.87008925 105.04148513 84.83254133 105.27203132 82 105 C78.72080729 101.85845241 77.17190999 97.33573005 75.3125 93.25 C74.6030046 91.71938279 73.89202982 90.18945059 73.1796875 88.66015625 C72.81842773 87.88430176 72.45716797 87.10844727 72.08496094 86.30908203 C63.56922699 68.18536202 54.31844288 50.45891682 39.58203125 36.55078125 C37.89428607 34.89637425 36.4365492 33.138885 34.9375 31.3125 C31.56390991 27.39329512 27.78833562 24.05040401 23.875 20.6875 C23.27679443 20.1716333 22.67858887 19.6557666 22.06225586 19.12426758 C19.4637634 16.92498788 17.01162974 15.0068693 14.0703125 13.26953125 C13.38710938 12.85058594 12.70390625 12.43164062 12 12 C12 11.34 12 10.68 12 10 C11.319375 9.7525 10.63875 9.505 9.9375 9.25 C6.43134917 7.75802092 3.28379632 5.93164489 0 4 C0 2.68 0 1.36 0 0 Z " fill="#F8B333" transform="translate(314,46)"/>
<path d="M0 0 C0 1.32 0 2.64 0 4 C-1.3883365 4.94813224 -2.78706526 5.88410806 -4.23046875 6.74609375 C-6.30670401 8.21733331 -7.74139587 9.86344128 -9.375 11.8125 C-12.36484978 15.37782971 -15.58932623 18.3303913 -19.140625 21.32421875 C-20.91844868 22.92650102 -22.38654612 24.56817704 -23.875 26.4375 C-24.57625 27.283125 -25.2775 28.12875 -26 29 C-26.66 29 -27.32 29 -28 29 C-28.37125 29.8353125 -28.37125 29.8353125 -28.75 30.6875 C-30.22924818 33.42410913 -31.93467439 35.67650869 -34 38 C-34.66 38 -35.32 38 -36 38 C-36.22429687 38.67289063 -36.44859375 39.34578125 -36.6796875 40.0390625 C-38.37993641 43.85204674 -40.69672296 46.99485148 -43.125 50.375 C-52.10284028 63.21799531 -58.49835138 76.96756942 -64.87670898 91.25341797 C-65.36727783 92.34025879 -65.85784668 93.42709961 -66.36328125 94.546875 C-66.79938721 95.52495117 -67.23549316 96.50302734 -67.68481445 97.51074219 C-68.93409806 99.8752671 -69.83447393 101.43842295 -72 103 C-79.84791448 102.08440998 -92.30029887 98.69970113 -98 93 C-97.99023369 86.7788619 -94.23889483 81.90727499 -91.0625 76.8125 C-90.23588867 75.45995117 -90.23588867 75.45995117 -89.39257812 74.08007812 C-87.31100993 70.68330281 -85.20999255 67.31498882 -83 64 C-82.34 64 -81.68 64 -81 64 C-80.885354 63.41299316 -80.77070801 62.82598633 -80.65258789 62.22119141 C-79.95122062 59.83397127 -79.06063596 58.4309622 -77.55859375 56.4609375 C-76.81234741 55.47347534 -76.81234741 55.47347534 -76.05102539 54.46606445 C-75.51856201 53.77601318 -74.98609863 53.08596191 -74.4375 52.375 C-73.62430298 51.3080188 -73.62430298 51.3080188 -72.79467773 50.21948242 C-71.20461219 48.13987571 -69.60458402 46.06841715 -68 44 C-67.20851563 42.97777344 -66.41703125 41.95554688 -65.6015625 40.90234375 C-62.27487899 36.67707331 -58.91096227 32.70512215 -55 29 C-54.48308594 28.46246094 -53.96617188 27.92492187 -53.43359375 27.37109375 C-51.99412013 25.87612235 -50.50044935 24.43376272 -49 23 C-48.34 23 -47.68 23 -47 23 C-47 22.34 -47 21.68 -47 21 C-36.47987891 11.47586671 -14.96271429 -4.98757143 0 0 Z " fill="#F8B333" transform="translate(174,48)"/>
<path d="M0 0 C6.6335551 1.10559252 9.73420107 3.24861286 13.609375 8.66015625 C17.3372288 14.93258441 18.93731783 22.72886819 19 30 C18.67 30.66 18.34 31.32 18 32 C17.34 32 16.68 32 16 32 C16 31.34 16 30.68 16 30 C15.34 30 14.68 30 14 30 C12.6559907 28.00715862 11.32458708 26.00580329 10 24 C7.61639716 21.24968903 5.82217447 19.36997851 2.5 17.875 C-0.24049856 17.7189525 -0.24049856 17.7189525 -2.125 20.3125 C-7.33589023 25.18354956 -14.06452193 24.88210817 -20.94140625 25.34765625 C-33.00489158 26.19938689 -43.52644529 28.2361182 -54.91308594 32.3046875 C-58.22997282 33.40979909 -61.59755937 34.2012329 -65 35 C-65 31 -65 31 -63.125 28.75 C-61 27 -61 27 -59 27 C-58.67 26.01 -58.34 25.02 -58 24 C-55.62890625 22.0625 -55.62890625 22.0625 -52.5625 20 C-51.07943359 18.9790625 -51.07943359 18.9790625 -49.56640625 17.9375 C-42.12328985 13.5252762 -33.97158539 12.59508407 -25.5 12.0625 C-13.33157115 11.37569633 -13.33157115 11.37569633 -3.3046875 5.18359375 C-1.70349763 3.09433312 -1.70349763 3.09433312 0 0 Z " fill="#F8B332" transform="translate(275,390)"/>
<path d="M0 0 C3.06130715 4.28583 3.31025282 7.8291196 3 13 C-2.11550294 14.58416929 -7.0783005 15.56233069 -12.3828125 16.25390625 C-13.16010712 16.35968491 -13.93740173 16.46546356 -14.73825073 16.57444763 C-17.19987738 16.90862867 -19.66235692 17.23590168 -22.125 17.5625 C-24.59459727 17.89391677 -27.06398582 18.22680285 -29.53317261 18.56126404 C-31.06327242 18.76811458 -32.59363714 18.973018 -34.1242981 19.17567444 C-37.78092196 19.66603368 -41.38973467 20.24124635 -45 21 C-48.09220285 21.41194608 -50.92431583 21.59677454 -54 21 C-57.30258173 17.69741827 -57.94982593 15.77769804 -58.25 11.125 C-58.1675 10.09375 -58.085 9.0625 -58 8 C-50.18492848 5.32294613 -42.42358818 4.01460517 -34.25 2.9375 C-33.07695312 2.77701172 -31.90390625 2.61652344 -30.6953125 2.45117188 C-28.32947567 2.1274942 -25.96293026 1.8089533 -23.59570312 1.49560547 C-21.12723628 1.15537002 -18.66235808 0.78834997 -16.20117188 0.39892578 C-14.97462891 0.20669434 -13.74808594 0.01446289 -12.484375 -0.18359375 C-11.38319336 -0.3633374 -10.28201172 -0.54308105 -9.14746094 -0.72827148 C-5.83149006 -1.0145479 -3.21680108 -0.84821844 0 0 Z " fill="#F8B432" transform="translate(476,183)"/>
<path d="M0 0 C51.67015873 4.67015873 51.67015873 4.67015873 57 10 C56.68789339 14.57756359 55.18733261 18.00574046 53 22 C44.73644356 22.34583166 36.86284709 21.01111458 28.75 19.625 C26.74075523 19.28874912 24.73117816 18.95454133 22.72155762 18.62054443 C20.75328912 18.29221756 18.78581838 17.95911987 16.81835938 17.62597656 C12.11610028 16.8550947 7.40194893 16.18393131 2.68066406 15.54052734 C0.12710586 15.02562954 -1.75183628 14.2887776 -4 13 C-4.45732667 7.28341664 -3.52273754 4.51350747 0 0 Z " fill="#F8B432" transform="translate(24,182)"/>
<path d="M0 0 C3.48737556 1.32279763 6.23003304 3.53780715 9 6 C9 6.66 9 7.32 9 8 C9.71671875 8.28101563 10.4334375 8.56203125 11.171875 8.8515625 C13.90248916 9.96040306 16.58285714 11.12128315 19.25 12.375 C20.12140625 12.77460938 20.9928125 13.17421875 21.890625 13.5859375 C24 15 24 15 24.8359375 16.984375 C25.19512353 21.39723196 23.2752135 24.57467004 20.9375 28.1875 C17.64319139 31.83821042 13.8193225 33.3289551 9 34 C2.23395652 33.75544421 -2.40021191 31.93635795 -7 27 C-10.48846902 21.99986107 -10.87676167 16.91573259 -10 11 C-7.69907909 6.56250967 -4.5638835 2.28194175 0 0 Z " fill="#F8B333" transform="translate(202,266)"/>
<path d="M0 0 C7.91807229 4.18313253 7.91807229 4.18313253 10 8 C11.5812009 13.31858485 11.51529085 18.33961836 9.875 23.625 C7.42485552 28.03526006 4.57374883 30.71312558 0 33 C-5.85475711 33.49328755 -11.18984281 33.85744288 -16.5625 31.3125 C-17.366875 30.549375 -18.17125 29.78625 -19 29 C-20.175625 27.9171875 -20.175625 27.9171875 -21.375 26.8125 C-23.6539712 22.86812678 -23.34909457 19.45095576 -23 15 C-22.17757813 14.5875 -21.35515625 14.175 -20.5078125 13.75 C-12.97084176 9.85096664 -6.44082443 5.59755622 0 0 Z " fill="#F8B333" transform="translate(293,266)"/>
<path d="M0 0 C0.02685938 2.14576637 0.04633088 4.29162645 0.0625 6.4375 C0.07410156 7.63246094 0.08570313 8.82742187 0.09765625 10.05859375 C0 13 0 13 -1 14 C-5.26656325 14.84906731 -9.57027729 15.48780957 -13.8684082 16.15673828 C-16.00289507 16.49067492 -18.1351785 16.83661522 -20.26757812 17.18359375 C-29.83421428 18.70405246 -39.32480737 19.56409992 -49 20 C-51.92023292 15.17526734 -53.12386 12.69755995 -53 7 C-45.94039667 4.8941413 -38.82389976 3.59809986 -31.5625 2.375 C-30.89547058 2.26161285 -30.22844116 2.14822571 -29.54119873 2.03140259 C-19.62260082 0.36496948 -10.05978808 -0.72314771 0 0 Z " fill="#F8B333" transform="translate(480,203)"/>
<path d="M0 0 C8.70736657 0.77900241 17.26670376 2.05925014 25.87646484 3.56445312 C28.48814495 4.01412521 31.10030707 4.46094466 33.71240234 4.90820312 C35.41855713 5.20500977 35.41855713 5.20500977 37.15917969 5.5078125 C40.60012144 6.08088388 44.04648431 6.58397004 47.50146484 7.06445312 C48.5796442 10.29175508 48.45004553 12.04571644 47.18896484 15.18945312 C46.92470703 15.87265625 46.66044922 16.55585938 46.38818359 17.25976562 C45.50146484 19.06445312 45.50146484 19.06445312 43.50146484 21.06445312 C33.63764816 21.25473574 23.54594857 19.59387745 13.80786133 18.12744141 C12.37348366 17.91556536 10.93749473 17.71436887 9.50024414 17.52294922 C7.38610003 17.24125271 5.27827781 16.93001997 3.16943359 16.61132812 C1.93475342 16.4344043 0.70007324 16.25748047 -0.57202148 16.07519531 C-3.49853516 15.06445312 -3.49853516 15.06445312 -4.91235352 12.60327148 C-5.81250658 8.70460773 -5.27129218 5.99263466 -4.49853516 2.06445312 C-2.49853516 0.06445312 -2.49853516 0.06445312 0 0 Z " fill="#F8B332" transform="translate(23.49853515625,201.935546875)"/>
<path d="M0 0 C1.75210338 4.48976491 2.37076135 8.18010242 2 13 C-0.39920353 15.39920353 -1.5501489 15.47463692 -4.84765625 16.03515625 C-5.83805908 16.2045874 -6.82846191 16.37401855 -7.84887695 16.54858398 C-8.90937256 16.71817627 -9.96986816 16.88776855 -11.0625 17.0625 C-12.13910889 17.236604 -13.21571777 17.41070801 -14.32495117 17.59008789 C-20.80417502 18.59908023 -27.27043457 19.47119688 -33.8125 19.9375 C-34.5041626 19.99494385 -35.1958252 20.0523877 -35.90844727 20.11157227 C-38.75199362 20.26423378 -40.5166175 20.34743117 -42.875 18.65234375 C-45.46314814 14.85100117 -46.26112607 11.56970628 -46 7 C-41.05262791 5.48546551 -36.17990889 4.44462529 -31.0546875 3.7109375 C-30.32178497 3.60278717 -29.58888245 3.49463684 -28.83377075 3.38320923 C-27.29625438 3.15747196 -25.75839457 2.93406257 -24.22021484 2.71289062 C-21.87370282 2.37481311 -19.52863704 2.02779135 -17.18359375 1.6796875 C-15.68236925 1.46040572 -14.18106955 1.24163794 -12.6796875 1.0234375 C-11.98374481 0.92034271 -11.28780212 0.81724792 -10.57077026 0.71102905 C-7.018038 0.20518996 -3.58903028 -0.11364829 0 0 Z " fill="#F8B432" transform="translate(481,222)"/>
<path d="M0 0 C10.93114937 0.90993138 21.747104 2.14951244 32.5625 4 C34.05148804 4.2489502 34.05148804 4.2489502 35.57055664 4.50292969 C36.9606897 4.74897949 36.9606897 4.74897949 38.37890625 5 C39.1994751 5.144375 40.02004395 5.28875 40.86547852 5.4375 C43 6 43 6 46 8 C45.39294514 12.12797305 44.06000669 15.37438822 42 19 C32.04328963 23.97835518 10.31854998 17.10010894 0 15 C-0.66 14.67 -1.32 14.34 -2 14 C-2.05410687 12.22950311 -2.09284119 10.45853151 -2.125 8.6875 C-2.14820313 7.70136719 -2.17140625 6.71523437 -2.1953125 5.69921875 C-2 3 -2 3 0 0 Z " fill="#F8B332" transform="translate(18,222)"/>
<path d="M0 0 C2.59252027 2.03197535 4.43928581 4.10674618 6.3125 6.8125 C6.3125 7.4725 6.3125 8.1325 6.3125 8.8125 C6.9725 8.8125 7.6325 8.8125 8.3125 8.8125 C8.3125 9.8025 8.3125 10.7925 8.3125 11.8125 C9.09625 12.06 9.88 12.3075 10.6875 12.5625 C13.77743987 14.03389994 13.84909227 14.88568455 15.3125 17.8125 C16.96241582 18.51960678 18.6332762 19.17812656 20.3125 19.8125 C21.3025 20.59625 22.2925 21.38 23.3125 22.1875 C28.30746229 25.93650287 34.36594827 27.21184923 40.3125 28.8125 C40.3125 29.8025 40.3125 30.7925 40.3125 31.8125 C34.84124361 34.63637427 29.47358076 34.61415737 23.6015625 33.125 C17.13404501 30.95104454 11.75633741 27.89004096 6.3125 23.8125 C5.260625 23.049375 4.20875 22.28625 3.125 21.5 C-0.49643696 18.03951579 -3.26022076 14.19365296 -5.6875 9.8125 C-5.6875 9.1525 -5.6875 8.4925 -5.6875 7.8125 C-12.6175 9.7925 -19.5475 11.7725 -26.6875 13.8125 C-26.6875 10.8125 -26.6875 10.8125 -24.4921875 8.40234375 C-23.52539062 7.52707031 -22.55859375 6.65179688 -21.5625 5.75 C-20.61117187 4.87214844 -19.65984375 3.99429688 -18.6796875 3.08984375 C-13.13452554 -1.1305602 -6.60036222 -2.91643912 0 0 Z " fill="#F8B332" transform="translate(202.6875,239.1875)"/>
<path d="M0 0 C6.65049104 2.10292207 12.42078083 6.83777839 17 12 C17 12.99 17 13.98 17 15 C11.6626635 13.71508566 6.43262476 12.24551052 1.19921875 10.5859375 C-1.10382323 9.8712755 -1.10382323 9.8712755 -4 10 C-5.61105208 12.23069039 -5.61105208 12.23069039 -7.125 15.0625 C-12.82580383 24.39217686 -22.51529381 31.36876649 -33.125 34.3125 C-39.72621784 35.48368381 -44.72371082 35.04940055 -51 33 C-50.67 32.01 -50.34 31.02 -50 30 C-47.4453125 29.11328125 -47.4453125 29.11328125 -44.125 28.3125 C-36.83534623 26.21493004 -31.77724932 22.82168001 -26 18 C-25.16082031 17.31164062 -24.32164062 16.62328125 -23.45703125 15.9140625 C-19.16374662 12.25811703 -16.04171103 8.77983161 -13 4 C-9.08787157 -0.1294689 -5.51879591 -0.98476656 0 0 Z " fill="#F8B332" transform="translate(305,238)"/>
<path d="M0 0 C2.48063781 9.41002278 2.48063781 9.41002278 1 14 C-4.335334 16.04050026 -9.6248641 16.80634731 -15.25 17.5625 C-16.14074219 17.68818359 -17.03148437 17.81386719 -17.94921875 17.94335938 C-20.63064689 18.31502322 -23.31431385 18.66059608 -26 19 C-26.92159912 19.12616699 -27.84319824 19.25233398 -28.79272461 19.38232422 C-29.67968018 19.49205566 -30.56663574 19.60178711 -31.48046875 19.71484375 C-32.27606201 19.81788818 -33.07165527 19.92093262 -33.89135742 20.02709961 C-36 20 -36 20 -39.0625 18 C-41.30320018 14.53052876 -41.84508129 12.10534579 -42 8 C-41 6 -41 6 -38.69140625 4.97265625 C-33.49442854 3.60329387 -28.27045818 3.04359086 -22.9375 2.4375 C-20.80058981 2.18783104 -18.66386313 1.9365852 -16.52734375 1.68359375 C-15.58624756 1.57587646 -14.64515137 1.46815918 -13.67553711 1.35717773 C-11.8950086 1.11948148 -10.12157063 0.8206076 -8.36157227 0.46118164 C-5.53979004 -0.08987249 -2.86774603 -0.06669177 0 0 Z " fill="#F8B433" transform="translate(485,242)"/>
<path d="M0 0 C7.62822726 0.644494 15.21976115 1.46150522 22.8125 2.4375 C23.80958984 2.55931641 24.80667969 2.68113281 25.83398438 2.80664062 C30.77493869 3.44110781 35.32944463 4.16825417 40 6 C39.91174084 7.39692939 39.80355166 8.79260452 39.6875 10.1875 C39.60048828 11.35345703 39.60048828 11.35345703 39.51171875 12.54296875 C38.89933322 15.48335425 37.64879127 17.51134186 36 20 C22.72797019 18.93711879 9.96812483 17.02198384 -3 14 C-2.88570603 12.22844346 -2.75816963 10.45773771 -2.625 8.6875 C-2.55539062 7.70136719 -2.48578125 6.71523437 -2.4140625 5.69921875 C-2 3 -2 3 0 0 Z " fill="#F8B332" transform="translate(15,242)"/>
<path d="M0 0 C0.763125 0.680625 1.52625 1.36125 2.3125 2.0625 C2.3125 3.0525 2.3125 4.0425 2.3125 5.0625 C-8.08704128 7.44927997 -18.45763985 9.20336892 -29.04296875 10.5546875 C-32.22737512 10.99838828 -35.34913249 11.55465249 -38.5 12.1875 C-43.44149589 13.11218112 -48.6941993 13.97126118 -53.6875 13.0625 C-55.97763653 9.6272952 -55.86592973 8.077169 -55.6875 4.0625 C-50.81709342 1.78772528 -46.28476874 0.39886527 -40.953125 -0.39453125 C-40.23445251 -0.50600998 -39.51578003 -0.61748871 -38.77532959 -0.73234558 C-37.26340804 -0.96319074 -35.75070639 -1.18897873 -34.23730469 -1.40991211 C-31.95412456 -1.74754161 -29.67683881 -2.11408853 -27.3984375 -2.48242188 C-18.03223976 -3.92101232 -8.50794131 -5.10745678 0 0 Z " fill="#F8B332" transform="translate(465.6875,171.9375)"/>
<path d="M0 0 C2.60054192 4.08656588 2.15851928 8.32368122 2 13 C-3.19286755 14.63517173 -8.15439684 15.50967168 -13.5625 16.0625 C-15.02228341 16.21867488 -16.4819228 16.37620261 -17.94140625 16.53515625 C-18.63403564 16.61056641 -19.32666504 16.68597656 -20.0402832 16.76367188 C-22.70908235 17.08551037 -25.35031108 17.54955288 -28 18 C-30.89757355 18.35521917 -33.02327734 18.29279239 -36 18 C-39.26607833 14.52320694 -39.54578482 10.63299486 -40 6 C-36.54760333 2.85233761 -33.57911801 2.37791062 -29.00390625 1.796875 C-27.9980674 1.66650848 -27.9980674 1.66650848 -26.97190857 1.5335083 C-25.55809937 1.35306007 -24.14351503 1.17859604 -22.72827148 1.00976562 C-20.57116773 0.75103962 -18.41767116 0.470798 -16.26367188 0.1875 C-4.22148924 -1.32563735 -4.22148924 -1.32563735 0 0 Z " fill="#F8B333" transform="translate(489,263)"/>
<path d="M0 0 C0.67523712 0.11068817 1.35047424 0.22137634 2.0461731 0.3354187 C13.56598762 2.25232508 13.56598762 2.25232508 17.125 4.625 C16.25 12.5 16.25 12.5 15.125 13.625 C8.79994088 14.0688638 3.1217753 13.15715814 -3.07861328 11.90551758 C-10.03622402 10.52630837 -17.03723916 9.59979067 -24.07299805 8.71557617 C-29.76859546 7.9815833 -35.28597564 6.94976366 -40.875 5.625 C-40.57006836 3.76342773 -40.57006836 3.76342773 -39.875 1.625 C-28.42080244 -6.50332292 -12.97440054 -2.14520937 0 0 Z " fill="#F8B432" transform="translate(71.875,171.375)"/>
<path d="M0 0 C8.1946617 0.05906062 16.44982664 1.3757676 24.5625 2.4375 C26.00822388 2.62070801 26.00822388 2.62070801 27.4831543 2.80761719 C28.85467651 2.99372559 28.85467651 2.99372559 30.25390625 3.18359375 C31.07189697 3.29243896 31.8898877 3.40128418 32.73266602 3.51342773 C35.08631368 4.01852301 36.90442344 4.83252027 39 6 C38.52060632 10.71403788 38.03165952 14.66579301 36 19 C28.58565023 19.28623268 21.50421156 18.19145336 14.1875 17.0625 C12.96095703 16.88009766 11.73441406 16.69769531 10.47070312 16.50976562 C1.42802911 15.14267637 1.42802911 15.14267637 -2 14 C-1.85970581 11.8537974 -1.71261836 9.70803782 -1.5625 7.5625 C-1.48128906 6.36753906 -1.40007813 5.17257812 -1.31640625 3.94140625 C-1 1 -1 1 0 0 Z " fill="#F8B433" transform="translate(10,262)"/>
<path d="M0 0 C1.57212151 3.14424302 1.5179375 6.57791292 1 10 C-0.04174805 12.53222656 -0.04174805 12.53222656 -2 15 C-4.68646366 15.82894298 -6.90896253 16.30999643 -9.66015625 16.65234375 C-10.40583359 16.76099258 -11.15151093 16.86964142 -11.91978455 16.98158264 C-13.49265487 17.20607847 -15.06710332 17.41974925 -16.64282227 17.62329102 C-19.06113504 17.93732275 -21.47224049 18.28705069 -23.88476562 18.64257812 C-25.41376817 18.85628319 -26.9430583 19.06794282 -28.47265625 19.27734375 C-29.19663101 19.38134995 -29.92060577 19.48535614 -30.66651917 19.59251404 C-32.43567503 19.8143374 -34.21889423 19.91765729 -36 20 C-38.5610544 17.4389456 -38.40191222 16.05814287 -38.6875 12.5 C-38.77386719 11.5203125 -38.86023438 10.540625 -38.94921875 9.53125 C-39 7 -39 7 -38 5 C-31.95179641 3.18484612 -25.80540838 2.25719902 -19.5625 1.375 C-18.22735352 1.17390625 -18.22735352 1.17390625 -16.86523438 0.96875 C-11.18309873 0.15523752 -5.73949223 -0.12845252 0 0 Z " fill="#F8B333" transform="translate(493,282)"/>
<path d="M0 0 C2.51894674 0.0122279 4.98817394 0.09787649 7.5 0.25 C8.6295813 0.31779663 8.6295813 0.31779663 9.78198242 0.38696289 C15.34873312 0.77424021 20.81628834 1.47902603 26.3125 2.4375 C27.02277344 2.55963867 27.73304687 2.68177734 28.46484375 2.80761719 C35.17608904 4.05463912 35.17608904 4.05463912 38 6 C39.08828929 9.26486787 38.89901381 10.36990083 38.125 13.625 C37.94195312 14.42164063 37.75890625 15.21828125 37.5703125 16.0390625 C37 18 37 18 36 19 C29.41161057 19.46234312 23.33096089 18.4322092 16.89550781 17.13989258 C13.16004635 16.39165118 9.48236872 15.77288938 5.6875 15.4375 C2 15 2 15 -1 13 C-1.328125 10.21484375 -1.328125 10.21484375 -1.25 6.9375 C-1.23453125 5.85339844 -1.2190625 4.76929688 -1.203125 3.65234375 C-1 1 -1 1 0 0 Z " fill="#F8B332" transform="translate(6,282)"/>
<path d="M0 0 C2.67211677 2.2163186 3.7100721 4.68903515 5.14453125 7.83203125 C5.67691406 8.96253906 6.20929688 10.09304687 6.7578125 11.2578125 C7.89278335 14.70399673 8.37388339 16.23024668 6.83203125 19.51953125 C4.1015625 21.03125 4.1015625 21.03125 0.64453125 22.20703125 C-0.48339844 22.60277344 -1.61132812 22.99851563 -2.7734375 23.40625 C-4.45373047 23.95732422 -4.45373047 23.95732422 -6.16796875 24.51953125 C-7.29847656 24.89722656 -8.42898438 25.27492187 -9.59375 25.6640625 C-10.44324219 25.94636719 -11.29273438 26.22867188 -12.16796875 26.51953125 C-16.56493837 22.93681526 -19.37123753 17.84409089 -21.16796875 12.51953125 C-21.16015625 9.90234375 -21.16015625 9.90234375 -20.16796875 7.51953125 C-17.65625 5.7890625 -17.65625 5.7890625 -14.48046875 4.33203125 C-13.44535156 3.84347656 -12.41023438 3.35492188 -11.34375 2.8515625 C-2.97383487 -0.65906611 -2.97383487 -0.65906611 0 0 Z " fill="#F8B233" transform="translate(420.16796875,146.48046875)"/>
<path d="M0 0 C3.54689565 0.22747312 5.73625898 1.03731776 8.9140625 2.5859375 C10.29464844 3.24722656 10.29464844 3.24722656 11.703125 3.921875 C12.55648437 4.34726563 13.40984375 4.77265625 14.2890625 5.2109375 C15.05992188 5.59507812 15.83078125 5.97921875 16.625 6.375 C17.17414063 6.65085938 17.72328125 6.92671875 18.2890625 7.2109375 C18.61089382 12.08960773 17.72827772 15.1721013 15.5390625 19.5234375 C15.02859375 20.57144531 14.518125 21.61945313 13.9921875 22.69921875 C12.2890625 25.2109375 12.2890625 25.2109375 10.453125 25.97119141 C7.76005918 26.26954324 6.40855819 25.69498907 3.9609375 24.55859375 C3.16171875 24.19443359 2.3625 23.83027344 1.5390625 23.45507812 C0.7140625 23.06513672 -0.1109375 22.67519531 -0.9609375 22.2734375 C-1.80140625 21.88736328 -2.641875 21.50128906 -3.5078125 21.10351562 C-5.58054492 20.14958763 -7.64769377 19.18517659 -9.7109375 18.2109375 C-9.14461755 13.86700609 -8.07413958 10.35774193 -6.2109375 6.3984375 C-5.7675 5.44324219 -5.3240625 4.48804688 -4.8671875 3.50390625 C-3.22692395 0.2510863 -3.22692395 0.2510863 0 0 Z " fill="#F8B333" transform="translate(80.7109375,146.7890625)"/>
<path d="M0 0 C6.46262655 2.85084355 12.37990944 6.75370936 18 11 C17.76785426 15.02385944 17.60783179 17.32065859 14.875 20.375 C11.37429681 22.35365833 9.02702225 22.93056858 5 23 C1.03449963 21.67816654 -2.43815291 20.41579611 -5 17 C-6.20643566 13.38069302 -6.32268559 10.80768995 -6 7 C-2.92307692 1.46153846 -2.92307692 1.46153846 0 0 Z " fill="#F8B432" transform="translate(217,327)"/>
<path d="M0 0 C3.42337723 2.05402634 4.24129161 3.72387484 5.5 7.5 C5.70225282 11.63404755 4.91058453 14.71304632 3 18.375 C-0.54319987 21.38671989 -3.87460544 22.32060021 -8.5 22.5 C-12.40270468 21.7733928 -14.91912401 20.18979024 -17.5 17.125 C-18.72269492 13.91542583 -18.65339919 12.72273304 -17.5 9.5 C-14.8828125 7.33203125 -14.8828125 7.33203125 -11.625 5.3125 C-10.55507813 4.63832031 -9.48515625 3.96414063 -8.3828125 3.26953125 C-6.95582031 2.39361328 -6.95582031 2.39361328 -5.5 1.5 C-2.5 -0.5 -2.5 -0.5 0 0 Z " fill="#F8B233" transform="translate(282.5,327.5)"/>
<path d="M0 0 C-1.47692308 4.67692308 -1.47692308 4.67692308 -4.125 6.3125 C-4.74375 6.539375 -5.3625 6.76625 -6 7 C-6 7.66 -6 8.32 -6 9 C-14.22605874 13.18411877 -22.69786163 15.50281829 -32 15 C-33.69192787 12.41234561 -34.00033706 11.01685311 -33.9375 7.875 C-33 5 -33 5 -31.0703125 3.91796875 C-26.74980789 2.62621483 -22.39903114 2.04545197 -17.9375 1.4375 C-16.15470401 1.18793416 -14.37214151 0.93669328 -12.58984375 0.68359375 C-11.80472412 0.57587646 -11.01960449 0.46815918 -10.21069336 0.35717773 C-7.99534779 0.03677917 -7.99534779 0.03677917 -5.85375977 -0.57006836 C-3.60639904 -1.09128556 -2.17128584 -0.69791331 0 0 Z " fill="#F8B531" transform="translate(489,303)"/>
<path d="M0 0 C8.19761237 0.31239259 16.29600473 0.82722233 24.375 2.3125 C25.59960938 2.53550781 26.82421875 2.75851562 28.0859375 2.98828125 C31 4 31 4 32.43359375 5.90625 C33.22669808 8.83800116 32.71322287 11.08227008 32 14 C31.67 14.33 31.34 14.66 31 15 C20.86840471 14.32456031 10.60866182 13.01422317 2.390625 6.6953125 C0.6247468 4.54252841 0.35132901 2.72742254 0 0 Z " fill="#F8B332" transform="translate(10,303)"/>
</svg>
